<?xml version="1.0" encoding="UTF-8"?>
<svg id="Layer_1" xmlns="http://www.w3.org/2000/svg" version="1.1" viewBox="482.62 170.8 429.5 429.5">
  <!-- Generator: Adobe Illustrator 30.2.1, SVG Export Plug-In . SVG Version: 2.1.1 Build 1)  -->
  <defs>
    <style>
      .st0 {
        fill: #fff;
      }

      .st1 {
        fill: #231f20;
      }

      .st2 {
        isolation: isolate;
      }

      .st3 {
        fill: #f15a29;
      }

      .st4 {
        fill: #07496c;
      }

      .st5 {
        fill: none;
        stroke: #f15a29;
        stroke-miterlimit: 10;
      }

      .st6 {
        fill: #1f9aa7;
      }
    </style>
  </defs>
  <g>
    <path class="st4" d="M748.43,369.7c.5-.8.8-1.8.8-2.8,0-2.8-2.3-5.1-5.1-5.1s-5.1,2.3-5.1,5.1.5,2.5,1.3,3.4c-23.6,1.4-26.5-2.6-26.5-2.6l-40.2-7.3s-34.3,22.1-68.7,17.9c-15.5-1.9-30.9-9.1-43.3-26.1,1.7,2,30.8,36.6,79.9-8.5,28.7-24.3,62.1-20.4,86.1-10.2,9,3.8,15.4,7.6,20.7,11.5h0c8.7,6.5,14.1,13.5,22.4,21.8s0,0,0,0c-8.7,1.3-16.1,2.2-22.3,2.8h0v.1Z"/>
    <path class="st6" d="M783.73,355.9c-7.4-37.6-26.4-65.1-39.9-78.8s-36-21.8-47-6.1c-7,12.1,4.7,11,4.7,11-4.7-3.1-.8-12.8,9-7.4,18.8,11.7-2.3,41.5-12.1,46.6,56.7,4.5,76.7,41.6,77.6,45.2-3.7,24.1-48.7,62.3-84.3,37.8-18.1-16.4-1.9-30.6,9-31.5-7.8,1.6-12,30.6,21.5,28.3,39.7-4.3,48.5-34,48.5-34h0c-.4-.6-7.9-12.6-22.4-21.8h0c-19.9-12.6-52.8-19.7-98.1,16-14.1,9.5-30.1,13-45.3,17.3-16.7,4.8-32.4,10.6-43.3,26.6,24.4-19.3,56-24.7,91.3.7,57.1,42.7,140.5,18.8,130.7-49.7h0l.1-.2ZM744.23,361.8c2.8,0,5.1,2.3,5.1,5.1s-.3,2-.8,2.8c-.9,1.4-2.5,2.3-4.3,2.3s-2.8-.6-3.8-1.7c-.8-.9-1.3-2.1-1.3-3.4,0-2.8,2.3-5.1,5.1-5.1h0Z"/>
    <g id="Layer_3">
      <g class="st2">
        <g class="st2">
          <path class="st3" d="M560.53,452h-7.9c.3-.3.5-.5.8-.9.2-.3.4-.5.5-.9.2-.3.2-.6.2-1v-.5c0-1.2-.3-2.2-.8-2.8-.6-.6-1.3-.9-2.1-.9s-1.6.3-2.1.9c-.6.6-.8,1.5-.8,2.8s.3,2.3.8,3.4,1.2,2.2,2,3.3c.8,1.1,1.6,2.2,2.6,3.3.9,1.1,1.8,2.3,2.6,3.5s1.4,2.6,2,4c.5,1.4.8,2.9.8,4.6,0,5.9-2.6,8.8-7.9,8.8s-2.5-.1-3.5-.4-1.9-.8-2.5-1.4-1.2-1.6-1.5-2.7-.5-2.6-.5-4.2v-1c0-.3,0-.6-.2-1-.2-.3-.3-.6-.5-.9s-.5-.6-.8-.9h8c-.3.3-.5.6-.8.9-.2.3-.4.5-.5.9-.2.3-.2.6-.2.9v1.3c0,1.2.3,2.1.9,2.7.6.6,1.3.9,2.2.9s1.5-.3,2.1-.9.9-1.5.9-2.7-.3-2.3-.8-3.4-1.2-2.2-2-3.3c-.8-1.1-1.7-2.2-2.6-3.3-.9-1.1-1.8-2.3-2.6-3.6s-1.5-2.6-2-4-.8-2.9-.8-4.5c0-3.1.7-5.4,2-6.7,1.3-1.4,3.3-2.1,6-2.1s4.6.7,5.9,2.1,2,3.6,2,6.7,0,.8.2,1.1.3.6.5.9.5.6.8.8l-.4.2Z"/>
        </g>
        <g class="st2">
          <path class="st5" d="M560.53,452h-7.9c.3-.3.5-.5.8-.9.2-.3.4-.5.5-.9.2-.3.2-.6.2-1v-.5c0-1.2-.3-2.2-.8-2.8-.6-.6-1.3-.9-2.1-.9s-1.6.3-2.1.9c-.6.6-.8,1.5-.8,2.8s.3,2.3.8,3.4,1.2,2.2,2,3.3c.8,1.1,1.6,2.2,2.6,3.3.9,1.1,1.8,2.3,2.6,3.5s1.4,2.6,2,4c.5,1.4.8,2.9.8,4.6,0,5.9-2.6,8.8-7.9,8.8s-2.5-.1-3.5-.4-1.9-.8-2.5-1.4-1.2-1.6-1.5-2.7-.5-2.6-.5-4.2v-1c0-.3,0-.6-.2-1-.2-.3-.3-.6-.5-.9s-.5-.6-.8-.9h8c-.3.3-.5.6-.8.9-.2.3-.4.5-.5.9-.2.3-.2.6-.2.9v1.3c0,1.2.3,2.1.9,2.7.6.6,1.3.9,2.2.9s1.5-.3,2.1-.9.9-1.5.9-2.7-.3-2.3-.8-3.4-1.2-2.2-2-3.3c-.8-1.1-1.7-2.2-2.6-3.3-.9-1.1-1.8-2.3-2.6-3.6s-1.5-2.6-2-4-.8-2.9-.8-4.5c0-3.1.7-5.4,2-6.7,1.3-1.4,3.3-2.1,6-2.1s4.6.7,5.9,2.1,2,3.6,2,6.7,0,.8.2,1.1.3.6.5.9.5.6.8.8l-.4.2Z"/>
        </g>
        <g class="st2">
          <path class="st3" d="M580.32,474.3c.4-.2.7-.3,1-.5s.6-.4.8-.7l-1,6.3h-14.9c.3-.4.5-.8.7-1.2.2-.4.4-.7.5-1.1.2-.4.2-.8.2-1.2v-32.5c0-.3,0-.7-.2-1-.2-.4-.3-.7-.5-1-.2-.4-.5-.7-.7-1h14.8l1,6.3c-.3-.3-.6-.5-.9-.7-.3-.2-.6-.3-1-.5s-.8-.3-1.2-.3h-6.4v11.6h4.7c.4,0,.7,0,1-.2.3-.1.6-.3.9-.5.3-.2.6-.5.8-.8v7.8c-.2-.3-.4-.5-.7-.7-.2-.2-.5-.4-.8-.5s-.7-.2-1.2-.2h-4.7v12.8h6.5c.4,0,.9-.1,1.2-.3l.1.1Z"/>
        </g>
        <g class="st2">
          <path class="st5" d="M580.32,474.3c.4-.2.7-.3,1-.5s.6-.4.8-.7l-1,6.3h-14.9c.3-.4.5-.8.7-1.2.2-.4.4-.7.5-1.1.2-.4.2-.8.2-1.2v-32.5c0-.3,0-.7-.2-1-.2-.4-.3-.7-.5-1-.2-.4-.5-.7-.7-1h14.8l1,6.3c-.3-.3-.6-.5-.9-.7-.3-.2-.6-.3-1-.5s-.8-.3-1.2-.3h-6.4v11.6h4.7c.4,0,.7,0,1-.2.3-.1.6-.3.9-.5.3-.2.6-.5.8-.8v7.8c-.2-.3-.4-.5-.7-.7-.2-.2-.5-.4-.8-.5s-.7-.2-1.2-.2h-4.7v12.8h6.5c.4,0,.9-.1,1.2-.3l.1.1Z"/>
        </g>
        <g class="st2">
          <path class="st3" d="M605.43,476.5c0,.4,0,.8.2,1.1.1.4.3.7.5,1,.2.4.5.7.8.9h-7.9c.3-.3.5-.7.7-1s.4-.7.5-1.1c.2-.4.2-.8.2-1.2h0v-7.1c0-.7-.2-1.3-.7-1.8s-1.1-.7-1.8-.7h-3v9.6c0,.4,0,.8.2,1.2.1.4.3.7.5,1,.2.4.5.7.8,1.1h-7.8c.3-.4.5-.8.7-1.2.2-.4.4-.7.5-1.1.2-.4.2-.8.2-1.1v-32.6c0-.4,0-.8-.2-1.2-.2-.4-.3-.8-.5-1.1-.2-.4-.5-.7-.7-1.1h9.6c1.1,0,2,.2,3,.6s1.7.9,2.4,1.6,1.2,1.5,1.6,2.4c.4.9.6,1.9.6,3v10.1c0,1.2-.3,2.3-.8,3.3s-1.2,1.9-2.1,2.6c.8.7,1.4,1.5,1.8,2.4.5,1,.7,2,.7,3.1v7.3ZM598.23,460.6c.7,0,1.4-.2,1.8-.7.5-.5.7-1.1.7-1.8v-10.4c0-.7-.2-1.4-.7-1.9s-1.1-.7-1.8-.7h-3.2v15.5h3.2Z"/>
        </g>
        <g class="st2">
          <path class="st5" d="M605.43,476.5c0,.4,0,.8.2,1.1.1.4.3.7.5,1,.2.4.5.7.8.9h-7.9c.3-.3.5-.7.7-1s.4-.7.5-1.1c.2-.4.2-.8.2-1.2h0v-7.1c0-.7-.2-1.3-.7-1.8s-1.1-.7-1.8-.7h-3v9.6c0,.4,0,.8.2,1.2.1.4.3.7.5,1,.2.4.5.7.8,1.1h-7.8c.3-.4.5-.8.7-1.2.2-.4.4-.7.5-1.1.2-.4.2-.8.2-1.1v-32.6c0-.4,0-.8-.2-1.2-.2-.4-.3-.8-.5-1.1-.2-.4-.5-.7-.7-1.1h9.6c1.1,0,2,.2,3,.6s1.7.9,2.4,1.6,1.2,1.5,1.6,2.4c.4.9.6,1.9.6,3v10.1c0,1.2-.3,2.3-.8,3.3s-1.2,1.9-2.1,2.6c.8.7,1.4,1.5,1.8,2.4.5,1,.7,2,.7,3.1v7.3ZM598.23,460.6c.7,0,1.4-.2,1.8-.7.5-.5.7-1.1.7-1.8v-10.4c0-.7-.2-1.4-.7-1.9s-1.1-.7-1.8-.7h-3.2v15.5h3.2Z"/>
        </g>
        <g class="st2">
          <path class="st3" d="M627.82,474.3c.4-.2.7-.3,1-.5s.6-.4.8-.7l-1,6.3h-14.9c.3-.4.5-.8.7-1.2.2-.4.4-.7.5-1.1.2-.4.2-.8.2-1.2v-32.5c0-.3,0-.7-.2-1-.2-.4-.3-.7-.5-1-.2-.4-.5-.7-.7-1h14.8l1,6.3c-.3-.3-.6-.5-.9-.7-.3-.2-.6-.3-1-.5s-.8-.3-1.2-.3h-6.4v11.6h4.7c.4,0,.7,0,1-.2.3-.1.6-.3.9-.5.3-.2.6-.5.8-.8v7.8c-.2-.3-.4-.5-.7-.7-.2-.2-.5-.4-.8-.5s-.7-.2-1.2-.2h-4.7v12.8h6.5c.4,0,.9-.1,1.2-.3l.1.1Z"/>
        </g>
        <g class="st2">
          <path class="st5" d="M627.82,474.3c.4-.2.7-.3,1-.5s.6-.4.8-.7l-1,6.3h-14.9c.3-.4.5-.8.7-1.2.2-.4.4-.7.5-1.1.2-.4.2-.8.2-1.2v-32.5c0-.3,0-.7-.2-1-.2-.4-.3-.7-.5-1-.2-.4-.5-.7-.7-1h14.8l1,6.3c-.3-.3-.6-.5-.9-.7-.3-.2-.6-.3-1-.5s-.8-.3-1.2-.3h-6.4v11.6h4.7c.4,0,.7,0,1-.2.3-.1.6-.3.9-.5.3-.2.6-.5.8-.8v7.8c-.2-.3-.4-.5-.7-.7-.2-.2-.5-.4-.8-.5s-.7-.2-1.2-.2h-4.7v12.8h6.5c.4,0,.9-.1,1.2-.3l.1.1Z"/>
        </g>
        <g class="st2">
          <path class="st3" d="M656.23,441.5c-.2.3-.4.5-.5.9-.2.3-.2.6-.2.9v33.1c0,.4,0,.8.2,1.2.2.4.3.7.5,1,.2.4.5.7.8,1h-8.2c.4-.3.6-.6.9-1,.2-.3.3-.7.5-1.2.1-.5,0-1-.1-1.5l-7.2-20.3v21c0,.4,0,.9.2,1.2.2.4.3.7.5.9.2.3.5.6.8.9h-7.9c.3-.3.5-.6.8-.9.2-.3.4-.6.5-1,.2-.4.2-.8.2-1.2v-33.1c0-.2-.1-.5-.3-.8s-.3-.6-.5-.9c-.2-.4-.5-.7-.7-1h8.6c-.3.3-.6.7-.8,1s-.4.7-.5,1c-.1.4-.1.7,0,1.1l6.9,20.8v-21.3c0-.3,0-.6-.2-.9s-.3-.6-.5-.9-.5-.6-.8-.9h7.9c-.3.3-.5.6-.8.9h-.1Z"/>
          <path class="st3" d="M665.73,443.4c0-.3,0-.6-.2-1s-.3-.8-.5-1.2c-.2-.4-.5-.9-.7-1.3h9.6c1.1,0,2,.2,3,.6.9.4,1.7.9,2.4,1.6s1.2,1.5,1.6,2.4c.4.9.6,1.9.6,3v24.4c0,1.1-.2,2-.6,3-.4.9-.9,1.7-1.6,2.4s-1.5,1.2-2.4,1.6-1.9.6-3,.6h-9.6c.3-.4.5-.8.7-1.3.2-.4.4-.8.5-1.2.2-.4.2-.9.2-1.3v-32.3ZM676.43,447.5c0-.7-.2-1.4-.7-1.8-.5-.5-1.1-.7-1.8-.7h-3.3v29.6h3.3c.7,0,1.3-.2,1.8-.7s.7-1.1.7-1.8v-24.6Z"/>
          <path class="st3" d="M696.43,441.4c-.2.3-.4.6-.5.9-.1.4-.2.7-.2,1.2v32.8c0,.4,0,.9.2,1.2.1.4.3.7.5,1,.2.4.5.7.8.9h-8c.3-.3.5-.6.7-1,.2-.3.4-.6.5-1,.2-.4.2-.7.2-1.2v-32.8c0-.4,0-.7-.2-1.1s-.3-.7-.5-1c-.2-.4-.5-.7-.7-1h8c-.3.2-.5.5-.8.8v.3Z"/>
          <path class="st3" d="M719.32,458.5c.8.7,1.4,1.5,1.8,2.5.5,1,.7,2,.7,3.1v7.8c0,1.1-.2,2-.6,3s-.9,1.7-1.6,2.4c-.7.7-1.5,1.2-2.4,1.6s-1.9.6-3,.6h-9.6c.3-.4.5-.8.8-1.2.2-.4.4-.8.5-1.3.2-.5.2-1,.2-1.6v-31.9c0-.4,0-.9-.2-1.3s-.3-.8-.5-1.2c-.2-.4-.5-.7-.8-1.1h9.3c1.1,0,2,.2,3,.6.9.4,1.7.9,2.4,1.6s1.2,1.5,1.6,2.4.6,1.9.6,3v5.6c0,1-.2,2-.6,2.9-.4.9-.9,1.7-1.6,2.4v.1ZM711.03,455.7h2.9c.7,0,1.4-.3,1.8-.8.5-.5.7-1.1.7-1.8v-5.6c0-.7-.2-1.3-.7-1.8s-1.1-.7-1.8-.7h-2.9v10.8-.1ZM716.82,464.1c0-.7-.2-1.3-.7-1.8s-1.1-.7-1.8-.7h-3.2v12.9h3.2c.7,0,1.4-.2,1.8-.7s.7-1.1.7-1.8v-7.9Z"/>
        </g>
        <g class="st2">
          <path class="st5" d="M656.23,441.5c-.2.3-.4.5-.5.9-.2.3-.2.6-.2.9v33.1c0,.4,0,.8.2,1.2.2.4.3.7.5,1,.2.4.5.7.8,1h-8.2c.4-.3.6-.6.9-1,.2-.3.3-.7.5-1.2.1-.5,0-1-.1-1.5l-7.2-20.3v21c0,.4,0,.9.2,1.2.2.4.3.7.5.9.2.3.5.6.8.9h-7.9c.3-.3.5-.6.8-.9.2-.3.4-.6.5-1,.2-.4.2-.8.2-1.2v-33.1c0-.2-.1-.5-.3-.8s-.3-.6-.5-.9c-.2-.4-.5-.7-.7-1h8.6c-.3.3-.6.7-.8,1s-.4.7-.5,1c-.1.4-.1.7,0,1.1l6.9,20.8v-21.3c0-.3,0-.6-.2-.9s-.3-.6-.5-.9-.5-.6-.8-.9h7.9c-.3.3-.5.6-.8.9h-.1Z"/>
          <path class="st5" d="M665.73,443.4c0-.3,0-.6-.2-1s-.3-.8-.5-1.2c-.2-.4-.5-.9-.7-1.3h9.6c1.1,0,2,.2,3,.6.9.4,1.7.9,2.4,1.6s1.2,1.5,1.6,2.4c.4.9.6,1.9.6,3v24.4c0,1.1-.2,2-.6,3-.4.9-.9,1.7-1.6,2.4s-1.5,1.2-2.4,1.6-1.9.6-3,.6h-9.6c.3-.4.5-.8.7-1.3.2-.4.4-.8.5-1.2.2-.4.2-.9.2-1.3v-32.3ZM676.43,447.5c0-.7-.2-1.4-.7-1.8-.5-.5-1.1-.7-1.8-.7h-3.3v29.6h3.3c.7,0,1.3-.2,1.8-.7s.7-1.1.7-1.8v-24.6Z"/>
          <path class="st5" d="M696.43,441.4c-.2.3-.4.6-.5.9-.1.4-.2.7-.2,1.2v32.8c0,.4,0,.9.2,1.2.1.4.3.7.5,1,.2.4.5.7.8.9h-8c.3-.3.5-.6.7-1,.2-.3.4-.6.5-1,.2-.4.2-.7.2-1.2v-32.8c0-.4,0-.7-.2-1.1s-.3-.7-.5-1c-.2-.4-.5-.7-.7-1h8c-.3.2-.5.5-.8.8v.3Z"/>
          <path class="st5" d="M719.32,458.5c.8.7,1.4,1.5,1.8,2.5.5,1,.7,2,.7,3.1v7.8c0,1.1-.2,2-.6,3s-.9,1.7-1.6,2.4c-.7.7-1.5,1.2-2.4,1.6s-1.9.6-3,.6h-9.6c.3-.4.5-.8.8-1.2.2-.4.4-.8.5-1.3.2-.5.2-1,.2-1.6v-31.9c0-.4,0-.9-.2-1.3s-.3-.8-.5-1.2c-.2-.4-.5-.7-.8-1.1h9.3c1.1,0,2,.2,3,.6.9.4,1.7.9,2.4,1.6s1.2,1.5,1.6,2.4.6,1.9.6,3v5.6c0,1-.2,2-.6,2.9-.4.9-.9,1.7-1.6,2.4v.1ZM711.03,455.7h2.9c.7,0,1.4-.3,1.8-.8.5-.5.7-1.1.7-1.8v-5.6c0-.7-.2-1.3-.7-1.8s-1.1-.7-1.8-.7h-2.9v10.8-.1ZM716.82,464.1c0-.7-.2-1.3-.7-1.8s-1.1-.7-1.8-.7h-3.2v12.9h3.2c.7,0,1.4-.2,1.8-.7s.7-1.1.7-1.8v-7.9Z"/>
        </g>
        <g class="st2">
          <path class="st6" d="M741.93,443.4c0-.4,0-.7-.2-1.1s-.3-.7-.5-1c-.2-.4-.5-.7-.7-1.1h9.6c1.1,0,2,.2,3,.6.9.4,1.7.9,2.4,1.6s1.2,1.5,1.6,2.4.6,1.9.6,3v12.6c0,1.1-.2,2-.6,3s-.9,1.7-1.6,2.4c-.7.7-1.5,1.2-2.4,1.6s-1.9.6-3,.6h-3.3v8.5c0,.3,0,.6.2.9.1.3.3.7.5,1,.2.4.5.7.8,1.1h-7.8c.3-.3.5-.7.7-1s.4-.6.5-.9c.2-.3.2-.6.2-.8v-33.4h0ZM752.73,447.8c0-.7-.2-1.4-.7-1.8-.5-.5-1.1-.7-1.8-.7h-3.3v17.8h3.3c.7,0,1.4-.3,1.8-.8.5-.5.7-1.1.7-1.8v-12.7Z"/>
          <path class="st6" d="M781.82,476.5c0,.4,0,.8.2,1.1.1.4.3.7.5,1,.2.4.5.7.8.9h-7.9c.3-.3.5-.7.7-1s.4-.7.5-1.1c.2-.4.2-.8.2-1.2h0v-7.1c0-.7-.2-1.3-.7-1.8s-1.1-.7-1.8-.7h-3v9.6c0,.4,0,.8.2,1.2.1.4.3.7.5,1,.2.4.5.7.8,1.1h-7.8c.3-.4.5-.8.7-1.2.2-.4.4-.7.5-1.1s.2-.8.2-1.1v-32.6c0-.4,0-.8-.2-1.2s-.3-.8-.5-1.1c-.2-.4-.5-.7-.7-1.1h9.6c1.1,0,2,.2,3,.6s1.7.9,2.4,1.6,1.2,1.5,1.6,2.4c.4.9.6,1.9.6,3v10.1c0,1.2-.3,2.3-.8,3.3s-1.2,1.9-2.1,2.6c.8.7,1.4,1.5,1.8,2.4.5,1,.7,2,.7,3.1v7.3ZM774.53,460.6c.7,0,1.4-.2,1.8-.7.5-.5.7-1.1.7-1.8v-10.4c0-.7-.2-1.4-.7-1.9s-1.1-.7-1.8-.7h-3.2v15.5h3.2Z"/>
          <path class="st6" d="M797.32,441.4c-.2.3-.4.6-.5.9-.1.4-.2.7-.2,1.2v32.8c0,.4,0,.9.2,1.2.1.4.3.7.5,1,.2.4.5.7.8.9h-8c.3-.3.5-.6.7-1,.2-.3.4-.6.5-1,.2-.4.2-.7.2-1.2v-32.8c0-.4,0-.7-.2-1.1s-.3-.7-.5-1c-.2-.4-.5-.7-.7-1h8c-.3.2-.5.5-.8.8v.3Z"/>
        </g>
        <g class="st2">
          <path class="st6" d="M829.53,479.5h-7.8c.3-.3.5-.6.7-1,.2-.3.4-.5.5-.9.2-.3.2-.6.2-.9v-20.3l-5.7,21.6-5.7-21.6v19.7c0,.4,0,.9.2,1.2s.3.7.5,1c.2.4.5.7.8,1h-7.9c.3-.4.5-.8.8-1.2.2-.4.4-.7.5-1.1.2-.4.2-.7.2-1v-32.8c0-.3,0-.5-.2-.9-.2-.3-.3-.6-.5-.9s-.5-.6-.8-.9h9.2c-.3.3-.5.5-.8.9-.2.3-.4.5-.5.9-.1.3-.1.7,0,1l4.1,17.7,4.1-17.6v-1c-.1-.3-.3-.6-.5-.9s-.5-.6-.8-.9h9.2c-.3.3-.5.7-.8,1-.2.3-.4.7-.5,1.1s-.2.8-.2,1.2v32.3c0,.4,0,.8.2,1.2.1.4.3.7.5,1,.2.4.5.7.8,1l.2.1Z"/>
        </g>
        <g class="st2">
          <path class="st6" d="M851.23,474.3c.4-.2.7-.3,1-.5s.6-.4.8-.7l-1,6.3h-14.9c.3-.4.5-.8.7-1.2.2-.4.4-.7.5-1.1.2-.4.2-.8.2-1.2v-32.5c0-.3,0-.7-.2-1-.2-.4-.3-.7-.5-1-.2-.4-.5-.7-.7-1h14.8l1,6.3c-.3-.3-.6-.5-.9-.7-.3-.2-.6-.3-1-.5s-.8-.3-1.2-.3h-6.4v11.6h4.7c.4,0,.7,0,1-.2.3-.1.6-.3.9-.5.3-.2.6-.5.8-.8v7.8c-.2-.3-.4-.5-.7-.7-.2-.2-.5-.4-.8-.5s-.7-.2-1.2-.2h-4.7v12.8h6.5c.4,0,.9-.1,1.2-.3l.1.1Z"/>
        </g>
      </g>
    </g>
    <g id="Layer_4">
      <g class="st2">
        <g class="st2">
          <path class="st1" d="M615.93,491.3l.8,2.2h-.1l-.7-.7c-.5-.5-.9-.8-1.5-1s-1.2-.4-1.9-.4c-1.2,0-2.1.3-2.8,1s-1,1.5-1,2.4.2,1.2.5,1.7,1,.9,2,1.3c1.8.6,3,1,3.6,1.3.7.3,1.3.8,1.9,1.5s.9,1.6.9,2.8,0,.9-.2,1.3c-.1.4-.3.8-.5,1.2-.2.4-.5.8-.9,1.1-.3.3-.7.6-1,.7-.4.2-.9.3-1.7.4s-1.3.1-1.5.1h-4.6v-5h.2c0,1.7.4,2.8,1.2,3.5s2,1,3.6,1,2.6-.3,3.3-1,1.1-1.5,1.1-2.5-.1-1.1-.4-1.5-.6-.8-1.1-1.1-1.4-.7-2.7-1.2-2.2-.9-2.8-1.2c-.5-.3-1-.9-1.3-1.6-.4-.7-.5-1.4-.5-2.1,0-1.3.5-2.5,1.4-3.4s2.1-1.4,3.6-1.4,1.2,0,1.9.2,1,.2,1.1.3,0,0,0,0l.1.1Z"/>
          <path class="st1" d="M631.13,491.3v-.2h10.9v2.4h-.2c-.2-.9-.4-1.4-.6-1.6s-.6-.2-1.2-.2h-5.7v7.7h5.3c.5,0,.9,0,1-.1s.2-.2.2-.4h.2v1.6h-.2c0-.2-.1-.4-.3-.5s-.4-.1-.8-.1h-5.4v5.3c0,.8,0,1.4.2,1.7.1.4.4.6.7.7s.8.1,1.5.1h4.9c.3,0,.5-.2.7-.4.2-.2.3-.6.4-1.3h.2v2.4h-11.8v-.2c.4,0,.7,0,.9-.2s.3-.5.3-1v-13.9c0-.6,0-1.1-.2-1.3s-.5-.4-1.1-.4l.1-.1Z"/>
          <path class="st1" d="M665.23,500.4h-5.1l-2.6,6.5c-.2.5-.3.8-.3.9,0,.3.2.4.6.4v.2h-2.6v-.2c.3,0,.6,0,.9-.3.2-.2.5-.6.8-1.3l6.3-15.8h.3l6.2,15.2s.2.4.5,1.1.8,1,1.4,1v.2h-4v-.2c.4,0,.6-.1.6-.4s0-.5-.3-.9v-.3l-2.5-6.1h-.2ZM660.32,499.9h4.7l-2.3-5.9-2.3,5.9h-.1Z"/>
          <path class="st1" d="M684.63,491.3v-.2h10.9v2h-.2v-.2c-.2-.6-.4-1-.7-1.1s-.7-.2-1.3-.2h-5.6v7.6h5.2c.4,0,.7,0,.9-.1s.3-.2.3-.5h.2v1.7h-.2c0-.4-.3-.6-.8-.6h-5.6v6.9c0,.6,0,1.1.3,1.3.2.2.5.3,1,.3v.2h-4.5v-.2c.5,0,.9-.1,1-.3s.2-.5.2-.9v-14.2c0-.6,0-1-.2-1.2s-.5-.3-1-.3h.1Z"/>
          <path class="st1" d="M718.23,490.9c2.4,0,4.4.7,5.9,2.2s2.3,3.3,2.3,5.5-.9,5.2-2.7,7.2-4.1,2.9-7.1,2.9-4.3-.8-5.9-2.3-2.3-3.4-2.3-5.6.4-3,1.1-4.5,1.8-2.8,3.3-3.8,3.2-1.5,5.2-1.5l.2-.1ZM718.13,507.7c1.2,0,2.4-.3,3.5-1s2.1-1.5,2.7-2.6,1-2.3,1-3.4c0-1.7-.4-3.2-1.3-4.6s-2.1-2.4-3.5-3.2-2.7-1.2-4-1.2-3.3.6-4.7,1.9-2.1,2.9-2.1,4.8.9,4.6,2.6,6.4,3.6,2.8,5.7,2.8l.1.1Z"/>
          <path class="st1" d="M749.73,490.9c2.4,0,4.4.7,5.9,2.2s2.3,3.3,2.3,5.5-.9,5.2-2.7,7.2-4.1,2.9-7.1,2.9-4.3-.8-5.9-2.3-2.3-3.4-2.3-5.6.4-3,1.1-4.5,1.8-2.8,3.3-3.8,3.2-1.5,5.2-1.5l.2-.1ZM749.63,507.7c1.2,0,2.4-.3,3.5-1s2.1-1.5,2.7-2.6,1-2.3,1-3.4c0-1.7-.4-3.2-1.3-4.6s-2.1-2.4-3.5-3.2-2.7-1.2-4-1.2-3.3.6-4.7,1.9-2.1,2.9-2.1,4.8.9,4.6,2.6,6.4,3.6,2.8,5.7,2.8l.1.1Z"/>
          <path class="st1" d="M771.63,491.3v-.2h7.9c2,0,3.6.2,4.8.5s2.2.8,3.1,1.5,1.6,1.5,2.1,2.6.8,2.2.8,3.5-.3,2.5-.8,3.7-1.2,2.3-2.2,3.1-1.9,1.5-2.9,1.8-2.6.5-4.7.5h-8.1v-.2h.2c.4,0,.7-.2.8-.5s.2-1,.2-1.8v-12.6c0-.9,0-1.5-.2-1.7s-.5-.3-1-.3v.1ZM777.53,491.5h-2.6v13.4c0,.8.1,1.5.4,1.9s.8.7,1.5.9,1.6.3,2.8.3c3.2,0,5.5-.8,6.8-2.5s2-3.5,2-5.4-.9-4.3-2.7-6-4.5-2.5-8.1-2.5l-.1-.1Z"/>
        </g>
      </g>
    </g>
  </g>
  <rect class="st0" x="697.37" y="-561.2" width="429.5" height="429.5"/>
  <g>
    <path class="st4" d="M963.18-362.3c.5-.8.8-1.8.8-2.8,0-2.8-2.3-5.1-5.1-5.1s-5.1,2.3-5.1,5.1.5,2.5,1.3,3.4c-23.6,1.4-26.5-2.6-26.5-2.6l-40.2-7.3s-34.3,22.1-68.7,17.9c-15.5-1.9-30.9-9.1-43.3-26.1,1.7,2,30.8,36.6,79.9-8.5,28.7-24.3,62.1-20.4,86.1-10.2,9,3.8,15.4,7.6,20.7,11.5h0c8.7,6.5,14.1,13.5,22.4,21.8s0,0,0,0c-8.7,1.3-16.1,2.2-22.3,2.8h0v.1Z"/>
    <path class="st6" d="M998.48-376.1c-7.4-37.6-26.4-65.1-39.9-78.8s-36-21.8-47-6.1c-7,12.1,4.7,11,4.7,11-4.7-3.1-.8-12.8,9-7.4,18.8,11.7-2.3,41.5-12.1,46.6,56.7,4.5,76.7,41.6,77.6,45.2-3.7,24.1-48.7,62.3-84.3,37.8-18.1-16.4-1.9-30.6,9-31.5-7.8,1.6-12,30.6,21.5,28.3,39.7-4.3,48.5-34,48.5-34h0c-.4-.6-7.9-12.6-22.4-21.8h0c-19.9-12.6-52.8-19.7-98.1,16-14.1,9.5-30.1,13-45.3,17.3-16.7,4.8-32.4,10.6-43.3,26.6,24.4-19.3,56-24.7,91.3.7,57.1,42.7,140.5,18.8,130.7-49.7h0l.1-.2ZM958.98-370.2c2.8,0,5.1,2.3,5.1,5.1s-.3,2-.8,2.8c-.9,1.4-2.5,2.3-4.3,2.3s-2.8-.6-3.8-1.7c-.8-.9-1.3-2.1-1.3-3.4,0-2.8,2.3-5.1,5.1-5.1h0Z"/>
    <g id="Layer_31" data-name="Layer_3">
      <g class="st2">
        <g class="st2">
          <path class="st3" d="M775.28-280h-7.9c.3-.3.5-.5.8-.9.2-.3.4-.5.5-.9.2-.3.2-.6.2-1v-.5c0-1.2-.3-2.2-.8-2.8-.6-.6-1.3-.9-2.1-.9s-1.6.3-2.1.9c-.6.6-.8,1.5-.8,2.8s.3,2.3.8,3.4,1.2,2.2,2,3.3c.8,1.1,1.6,2.2,2.6,3.3.9,1.1,1.8,2.3,2.6,3.5s1.4,2.6,2,4c.5,1.4.8,2.9.8,4.6,0,5.9-2.6,8.8-7.9,8.8s-2.5-.1-3.5-.4-1.9-.8-2.5-1.4-1.2-1.6-1.5-2.7-.5-2.6-.5-4.2v-1c0-.3,0-.6-.2-1-.2-.3-.3-.6-.5-.9s-.5-.6-.8-.9h8c-.3.3-.5.6-.8.9-.2.3-.4.5-.5.9-.2.3-.2.6-.2.9v1.3c0,1.2.3,2.1.9,2.7.6.6,1.3.9,2.2.9s1.5-.3,2.1-.9.9-1.5.9-2.7-.3-2.3-.8-3.4-1.2-2.2-2-3.3c-.8-1.1-1.7-2.2-2.6-3.3-.9-1.1-1.8-2.3-2.6-3.6s-1.5-2.6-2-4-.8-2.9-.8-4.5c0-3.1.7-5.4,2-6.7,1.3-1.4,3.3-2.1,6-2.1s4.6.7,5.9,2.1,2,3.6,2,6.7,0,.8.2,1.1.3.6.5.9.5.6.8.8l-.4.2Z"/>
        </g>
        <g class="st2">
          <path class="st5" d="M775.28-280h-7.9c.3-.3.5-.5.8-.9.2-.3.4-.5.5-.9.2-.3.2-.6.2-1v-.5c0-1.2-.3-2.2-.8-2.8-.6-.6-1.3-.9-2.1-.9s-1.6.3-2.1.9c-.6.6-.8,1.5-.8,2.8s.3,2.3.8,3.4,1.2,2.2,2,3.3c.8,1.1,1.6,2.2,2.6,3.3.9,1.1,1.8,2.3,2.6,3.5s1.4,2.6,2,4c.5,1.4.8,2.9.8,4.6,0,5.9-2.6,8.8-7.9,8.8s-2.5-.1-3.5-.4-1.9-.8-2.5-1.4-1.2-1.6-1.5-2.7-.5-2.6-.5-4.2v-1c0-.3,0-.6-.2-1-.2-.3-.3-.6-.5-.9s-.5-.6-.8-.9h8c-.3.3-.5.6-.8.9-.2.3-.4.5-.5.9-.2.3-.2.6-.2.9v1.3c0,1.2.3,2.1.9,2.7.6.6,1.3.9,2.2.9s1.5-.3,2.1-.9.9-1.5.9-2.7-.3-2.3-.8-3.4-1.2-2.2-2-3.3c-.8-1.1-1.7-2.2-2.6-3.3-.9-1.1-1.8-2.3-2.6-3.6s-1.5-2.6-2-4-.8-2.9-.8-4.5c0-3.1.7-5.4,2-6.7,1.3-1.4,3.3-2.1,6-2.1s4.6.7,5.9,2.1,2,3.6,2,6.7,0,.8.2,1.1.3.6.5.9.5.6.8.8l-.4.2Z"/>
        </g>
        <g class="st2">
          <path class="st3" d="M795.07-257.7c.4-.2.7-.3,1-.5s.6-.4.8-.7l-1,6.3h-14.9c.3-.4.5-.8.7-1.2.2-.4.4-.7.5-1.1.2-.4.2-.8.2-1.2v-32.5c0-.3,0-.7-.2-1-.2-.4-.3-.7-.5-1-.2-.4-.5-.7-.7-1h14.8l1,6.3c-.3-.3-.6-.5-.9-.7-.3-.2-.6-.3-1-.5s-.8-.3-1.2-.3h-6.4v11.6h4.7c.4,0,.7,0,1-.2.3-.1.6-.3.9-.5.3-.2.6-.5.8-.8v7.8c-.2-.3-.4-.5-.7-.7-.2-.2-.5-.4-.8-.5s-.7-.2-1.2-.2h-4.7v12.8h6.5c.4,0,.9-.1,1.2-.3l.1.1Z"/>
        </g>
        <g class="st2">
          <path class="st5" d="M795.07-257.7c.4-.2.7-.3,1-.5s.6-.4.8-.7l-1,6.3h-14.9c.3-.4.5-.8.7-1.2.2-.4.4-.7.5-1.1.2-.4.2-.8.2-1.2v-32.5c0-.3,0-.7-.2-1-.2-.4-.3-.7-.5-1-.2-.4-.5-.7-.7-1h14.8l1,6.3c-.3-.3-.6-.5-.9-.7-.3-.2-.6-.3-1-.5s-.8-.3-1.2-.3h-6.4v11.6h4.7c.4,0,.7,0,1-.2.3-.1.6-.3.9-.5.3-.2.6-.5.8-.8v7.8c-.2-.3-.4-.5-.7-.7-.2-.2-.5-.4-.8-.5s-.7-.2-1.2-.2h-4.7v12.8h6.5c.4,0,.9-.1,1.2-.3l.1.1Z"/>
        </g>
        <g class="st2">
          <path class="st3" d="M820.18-255.5c0,.4,0,.8.2,1.1.1.4.3.7.5,1,.2.4.5.7.8.9h-7.9c.3-.3.5-.7.7-1s.4-.7.5-1.1c.2-.4.2-.8.2-1.2h0v-7.1c0-.7-.2-1.3-.7-1.8s-1.1-.7-1.8-.7h-3v9.6c0,.4,0,.8.2,1.2.1.4.3.7.5,1,.2.4.5.7.8,1.1h-7.8c.3-.4.5-.8.7-1.2.2-.4.4-.7.5-1.1.2-.4.2-.8.2-1.1v-32.6c0-.4,0-.8-.2-1.2-.2-.4-.3-.8-.5-1.1-.2-.4-.5-.7-.7-1.1h9.6c1.1,0,2,.2,3,.6s1.7.9,2.4,1.6,1.2,1.5,1.6,2.4c.4.9.6,1.9.6,3v10.1c0,1.2-.3,2.3-.8,3.3s-1.2,1.9-2.1,2.6c.8.7,1.4,1.5,1.8,2.4.5,1,.7,2,.7,3.1v7.3ZM812.98-271.4c.7,0,1.4-.2,1.8-.7.5-.5.7-1.1.7-1.8v-10.4c0-.7-.2-1.4-.7-1.9s-1.1-.7-1.8-.7h-3.2v15.5h3.2Z"/>
        </g>
        <g class="st2">
          <path class="st5" d="M820.18-255.5c0,.4,0,.8.2,1.1.1.4.3.7.5,1,.2.4.5.7.8.9h-7.9c.3-.3.5-.7.7-1s.4-.7.5-1.1c.2-.4.2-.8.2-1.2h0v-7.1c0-.7-.2-1.3-.7-1.8s-1.1-.7-1.8-.7h-3v9.6c0,.4,0,.8.2,1.2.1.4.3.7.5,1,.2.4.5.7.8,1.1h-7.8c.3-.4.5-.8.7-1.2.2-.4.4-.7.5-1.1.2-.4.2-.8.2-1.1v-32.6c0-.4,0-.8-.2-1.2-.2-.4-.3-.8-.5-1.1-.2-.4-.5-.7-.7-1.1h9.6c1.1,0,2,.2,3,.6s1.7.9,2.4,1.6,1.2,1.5,1.6,2.4c.4.9.6,1.9.6,3v10.1c0,1.2-.3,2.3-.8,3.3s-1.2,1.9-2.1,2.6c.8.7,1.4,1.5,1.8,2.4.5,1,.7,2,.7,3.1v7.3ZM812.98-271.4c.7,0,1.4-.2,1.8-.7.5-.5.7-1.1.7-1.8v-10.4c0-.7-.2-1.4-.7-1.9s-1.1-.7-1.8-.7h-3.2v15.5h3.2Z"/>
        </g>
        <g class="st2">
          <path class="st3" d="M842.57-257.7c.4-.2.7-.3,1-.5s.6-.4.8-.7l-1,6.3h-14.9c.3-.4.5-.8.7-1.2.2-.4.4-.7.5-1.1.2-.4.2-.8.2-1.2v-32.5c0-.3,0-.7-.2-1-.2-.4-.3-.7-.5-1-.2-.4-.5-.7-.7-1h14.8l1,6.3c-.3-.3-.6-.5-.9-.7-.3-.2-.6-.3-1-.5s-.8-.3-1.2-.3h-6.4v11.6h4.7c.4,0,.7,0,1-.2.3-.1.6-.3.9-.5.3-.2.6-.5.8-.8v7.8c-.2-.3-.4-.5-.7-.7-.2-.2-.5-.4-.8-.5s-.7-.2-1.2-.2h-4.7v12.8h6.5c.4,0,.9-.1,1.2-.3l.1.1Z"/>
        </g>
        <g class="st2">
          <path class="st5" d="M842.57-257.7c.4-.2.7-.3,1-.5s.6-.4.8-.7l-1,6.3h-14.9c.3-.4.5-.8.7-1.2.2-.4.4-.7.5-1.1.2-.4.2-.8.2-1.2v-32.5c0-.3,0-.7-.2-1-.2-.4-.3-.7-.5-1-.2-.4-.5-.7-.7-1h14.8l1,6.3c-.3-.3-.6-.5-.9-.7-.3-.2-.6-.3-1-.5s-.8-.3-1.2-.3h-6.4v11.6h4.7c.4,0,.7,0,1-.2.3-.1.6-.3.9-.5.3-.2.6-.5.8-.8v7.8c-.2-.3-.4-.5-.7-.7-.2-.2-.5-.4-.8-.5s-.7-.2-1.2-.2h-4.7v12.8h6.5c.4,0,.9-.1,1.2-.3l.1.1Z"/>
        </g>
        <g class="st2">
          <path class="st3" d="M870.98-290.5c-.2.3-.4.5-.5.9-.2.3-.2.6-.2.9v33.1c0,.4,0,.8.2,1.2.2.4.3.7.5,1,.2.4.5.7.8,1h-8.2c.4-.3.6-.6.9-1,.2-.3.3-.7.5-1.2.1-.5,0-1-.1-1.5l-7.2-20.3v21c0,.4,0,.9.2,1.2.2.4.3.7.5.9.2.3.5.6.8.9h-7.9c.3-.3.5-.6.8-.9.2-.3.4-.6.5-1,.2-.4.2-.8.2-1.2v-33.1c0-.2-.1-.5-.3-.8s-.3-.6-.5-.9c-.2-.4-.5-.7-.7-1h8.6c-.3.3-.6.7-.8,1s-.4.7-.5,1c-.1.4-.1.7,0,1.1l6.9,20.8v-21.3c0-.3,0-.6-.2-.9s-.3-.6-.5-.9-.5-.6-.8-.9h7.9c-.3.3-.5.6-.8.9h-.1Z"/>
          <path class="st3" d="M880.48-288.6c0-.3,0-.6-.2-1s-.3-.8-.5-1.2c-.2-.4-.5-.9-.7-1.3h9.6c1.1,0,2,.2,3,.6.9.4,1.7.9,2.4,1.6s1.2,1.5,1.6,2.4c.4.9.6,1.9.6,3v24.4c0,1.1-.2,2-.6,3-.4.9-.9,1.7-1.6,2.4s-1.5,1.2-2.4,1.6-1.9.6-3,.6h-9.6c.3-.4.5-.8.7-1.3.2-.4.4-.8.5-1.2.2-.4.2-.9.2-1.3v-32.3ZM891.18-284.5c0-.7-.2-1.4-.7-1.8-.5-.5-1.1-.7-1.8-.7h-3.3v29.6h3.3c.7,0,1.3-.2,1.8-.7s.7-1.1.7-1.8v-24.6Z"/>
          <path class="st3" d="M911.18-290.6c-.2.3-.4.6-.5.9-.1.4-.2.7-.2,1.2v32.8c0,.4,0,.9.2,1.2.1.4.3.7.5,1,.2.4.5.7.8.9h-8c.3-.3.5-.6.7-1,.2-.3.4-.6.5-1,.2-.4.2-.7.2-1.2v-32.8c0-.4,0-.7-.2-1.1s-.3-.7-.5-1c-.2-.4-.5-.7-.7-1h8c-.3.2-.5.5-.8.8v.3Z"/>
          <path class="st3" d="M934.07-273.5c.8.7,1.4,1.5,1.8,2.5.5,1,.7,2,.7,3.1v7.8c0,1.1-.2,2-.6,3s-.9,1.7-1.6,2.4c-.7.7-1.5,1.2-2.4,1.6s-1.9.6-3,.6h-9.6c.3-.4.5-.8.8-1.2.2-.4.4-.8.5-1.3.2-.5.2-1,.2-1.6v-31.9c0-.4,0-.9-.2-1.3s-.3-.8-.5-1.2c-.2-.4-.5-.7-.8-1.1h9.3c1.1,0,2,.2,3,.6.9.4,1.7.9,2.4,1.6s1.2,1.5,1.6,2.4.6,1.9.6,3v5.6c0,1-.2,2-.6,2.9-.4.9-.9,1.7-1.6,2.4v.1ZM925.78-276.3h2.9c.7,0,1.4-.3,1.8-.8.5-.5.7-1.1.7-1.8v-5.6c0-.7-.2-1.3-.7-1.8s-1.1-.7-1.8-.7h-2.9v10.8-.1ZM931.57-267.9c0-.7-.2-1.3-.7-1.8s-1.1-.7-1.8-.7h-3.2v12.9h3.2c.7,0,1.4-.2,1.8-.7s.7-1.1.7-1.8v-7.9Z"/>
        </g>
        <g class="st2">
          <path class="st5" d="M870.98-290.5c-.2.3-.4.5-.5.9-.2.3-.2.6-.2.9v33.1c0,.4,0,.8.2,1.2.2.4.3.7.5,1,.2.4.5.7.8,1h-8.2c.4-.3.6-.6.9-1,.2-.3.3-.7.5-1.2.1-.5,0-1-.1-1.5l-7.2-20.3v21c0,.4,0,.9.2,1.2.2.4.3.7.5.9.2.3.5.6.8.9h-7.9c.3-.3.5-.6.8-.9.2-.3.4-.6.5-1,.2-.4.2-.8.2-1.2v-33.1c0-.2-.1-.5-.3-.8s-.3-.6-.5-.9c-.2-.4-.5-.7-.7-1h8.6c-.3.3-.6.7-.8,1s-.4.7-.5,1c-.1.4-.1.7,0,1.1l6.9,20.8v-21.3c0-.3,0-.6-.2-.9s-.3-.6-.5-.9-.5-.6-.8-.9h7.9c-.3.3-.5.6-.8.9h-.1Z"/>
          <path class="st5" d="M880.48-288.6c0-.3,0-.6-.2-1s-.3-.8-.5-1.2c-.2-.4-.5-.9-.7-1.3h9.6c1.1,0,2,.2,3,.6.9.4,1.7.9,2.4,1.6s1.2,1.5,1.6,2.4c.4.9.6,1.9.6,3v24.4c0,1.1-.2,2-.6,3-.4.9-.9,1.7-1.6,2.4s-1.5,1.2-2.4,1.6-1.9.6-3,.6h-9.6c.3-.4.5-.8.7-1.3.2-.4.4-.8.5-1.2.2-.4.2-.9.2-1.3v-32.3ZM891.18-284.5c0-.7-.2-1.4-.7-1.8-.5-.5-1.1-.7-1.8-.7h-3.3v29.6h3.3c.7,0,1.3-.2,1.8-.7s.7-1.1.7-1.8v-24.6Z"/>
          <path class="st5" d="M911.18-290.6c-.2.3-.4.6-.5.9-.1.4-.2.7-.2,1.2v32.8c0,.4,0,.9.2,1.2.1.4.3.7.5,1,.2.4.5.7.8.9h-8c.3-.3.5-.6.7-1,.2-.3.4-.6.5-1,.2-.4.2-.7.2-1.2v-32.8c0-.4,0-.7-.2-1.1s-.3-.7-.5-1c-.2-.4-.5-.7-.7-1h8c-.3.2-.5.5-.8.8v.3Z"/>
          <path class="st5" d="M934.07-273.5c.8.7,1.4,1.5,1.8,2.5.5,1,.7,2,.7,3.1v7.8c0,1.1-.2,2-.6,3s-.9,1.7-1.6,2.4c-.7.7-1.5,1.2-2.4,1.6s-1.9.6-3,.6h-9.6c.3-.4.5-.8.8-1.2.2-.4.4-.8.5-1.3.2-.5.2-1,.2-1.6v-31.9c0-.4,0-.9-.2-1.3s-.3-.8-.5-1.2c-.2-.4-.5-.7-.8-1.1h9.3c1.1,0,2,.2,3,.6.9.4,1.7.9,2.4,1.6s1.2,1.5,1.6,2.4.6,1.9.6,3v5.6c0,1-.2,2-.6,2.9-.4.9-.9,1.7-1.6,2.4v.1ZM925.78-276.3h2.9c.7,0,1.4-.3,1.8-.8.5-.5.7-1.1.7-1.8v-5.6c0-.7-.2-1.3-.7-1.8s-1.1-.7-1.8-.7h-2.9v10.8-.1ZM931.57-267.9c0-.7-.2-1.3-.7-1.8s-1.1-.7-1.8-.7h-3.2v12.9h3.2c.7,0,1.4-.2,1.8-.7s.7-1.1.7-1.8v-7.9Z"/>
        </g>
        <g class="st2">
          <path class="st6" d="M956.68-288.6c0-.4,0-.7-.2-1.1s-.3-.7-.5-1c-.2-.4-.5-.7-.7-1.1h9.6c1.1,0,2,.2,3,.6.9.4,1.7.9,2.4,1.6s1.2,1.5,1.6,2.4.6,1.9.6,3v12.6c0,1.1-.2,2-.6,3s-.9,1.7-1.6,2.4c-.7.7-1.5,1.2-2.4,1.6s-1.9.6-3,.6h-3.3v8.5c0,.3,0,.6.2.9.1.3.3.7.5,1,.2.4.5.7.8,1.1h-7.8c.3-.3.5-.7.7-1s.4-.6.5-.9c.2-.3.2-.6.2-.8v-33.4h0ZM967.48-284.2c0-.7-.2-1.4-.7-1.8-.5-.5-1.1-.7-1.8-.7h-3.3v17.8h3.3c.7,0,1.4-.3,1.8-.8.5-.5.7-1.1.7-1.8v-12.7Z"/>
          <path class="st6" d="M996.57-255.5c0,.4,0,.8.2,1.1.1.4.3.7.5,1,.2.4.5.7.8.9h-7.9c.3-.3.5-.7.7-1s.4-.7.5-1.1c.2-.4.2-.8.2-1.2h0v-7.1c0-.7-.2-1.3-.7-1.8s-1.1-.7-1.8-.7h-3v9.6c0,.4,0,.8.2,1.2.1.4.3.7.5,1,.2.4.5.7.8,1.1h-7.8c.3-.4.5-.8.7-1.2.2-.4.4-.7.5-1.1s.2-.8.2-1.1v-32.6c0-.4,0-.8-.2-1.2s-.3-.8-.5-1.1c-.2-.4-.5-.7-.7-1.1h9.6c1.1,0,2,.2,3,.6s1.7.9,2.4,1.6,1.2,1.5,1.6,2.4c.4.9.6,1.9.6,3v10.1c0,1.2-.3,2.3-.8,3.3s-1.2,1.9-2.1,2.6c.8.7,1.4,1.5,1.8,2.4.5,1,.7,2,.7,3.1v7.3ZM989.28-271.4c.7,0,1.4-.2,1.8-.7.5-.5.7-1.1.7-1.8v-10.4c0-.7-.2-1.4-.7-1.9s-1.1-.7-1.8-.7h-3.2v15.5h3.2Z"/>
          <path class="st6" d="M1012.07-290.6c-.2.3-.4.6-.5.9-.1.4-.2.7-.2,1.2v32.8c0,.4,0,.9.2,1.2.1.4.3.7.5,1,.2.4.5.7.8.9h-8c.3-.3.5-.6.7-1,.2-.3.4-.6.5-1,.2-.4.2-.7.2-1.2v-32.8c0-.4,0-.7-.2-1.1s-.3-.7-.5-1c-.2-.4-.5-.7-.7-1h8c-.3.2-.5.5-.8.8v.3Z"/>
        </g>
        <g class="st2">
          <path class="st6" d="M1044.28-252.5h-7.8c.3-.3.5-.6.7-1,.2-.3.4-.5.5-.9.2-.3.2-.6.2-.9v-20.3l-5.7,21.6-5.7-21.6v19.7c0,.4,0,.9.2,1.2s.3.7.5,1c.2.4.5.7.8,1h-7.9c.3-.4.5-.8.8-1.2.2-.4.4-.7.5-1.1.2-.4.2-.7.2-1v-32.8c0-.3,0-.5-.2-.9-.2-.3-.3-.6-.5-.9s-.5-.6-.8-.9h9.2c-.3.3-.5.5-.8.9-.2.3-.4.5-.5.9-.1.3-.1.7,0,1l4.1,17.7,4.1-17.6v-1c-.1-.3-.3-.6-.5-.9s-.5-.6-.8-.9h9.2c-.3.3-.5.7-.8,1-.2.3-.4.7-.5,1.1s-.2.8-.2,1.2v32.3c0,.4,0,.8.2,1.2.1.4.3.7.5,1,.2.4.5.7.8,1l.2.1Z"/>
        </g>
        <g class="st2">
          <path class="st6" d="M1065.98-257.7c.4-.2.7-.3,1-.5s.6-.4.8-.7l-1,6.3h-14.9c.3-.4.5-.8.7-1.2.2-.4.4-.7.5-1.1.2-.4.2-.8.2-1.2v-32.5c0-.3,0-.7-.2-1-.2-.4-.3-.7-.5-1-.2-.4-.5-.7-.7-1h14.8l1,6.3c-.3-.3-.6-.5-.9-.7-.3-.2-.6-.3-1-.5s-.8-.3-1.2-.3h-6.4v11.6h4.7c.4,0,.7,0,1-.2.3-.1.6-.3.9-.5.3-.2.6-.5.8-.8v7.8c-.2-.3-.4-.5-.7-.7-.2-.2-.5-.4-.8-.5s-.7-.2-1.2-.2h-4.7v12.8h6.5c.4,0,.9-.1,1.2-.3l.1.1Z"/>
        </g>
      </g>
    </g>
    <g id="Layer_41" data-name="Layer_4">
      <g class="st2">
        <g class="st2">
          <path class="st1" d="M830.68-240.7l.8,2.2h-.1l-.7-.7c-.5-.5-.9-.8-1.5-1s-1.2-.4-1.9-.4c-1.2,0-2.1.3-2.8,1s-1,1.5-1,2.4.2,1.2.5,1.7,1,.9,2,1.3c1.8.6,3,1,3.6,1.3.7.3,1.3.8,1.9,1.5s.9,1.6.9,2.8,0,.9-.2,1.3c-.1.4-.3.8-.5,1.2-.2.4-.5.8-.9,1.1-.3.3-.7.6-1,.7-.4.2-.9.3-1.7.4s-1.3.1-1.5.1h-4.6v-5h.2c0,1.7.4,2.8,1.2,3.5s2,1,3.6,1,2.6-.3,3.3-1,1.1-1.5,1.1-2.5-.1-1.1-.4-1.5-.6-.8-1.1-1.1-1.4-.7-2.7-1.2-2.2-.9-2.8-1.2c-.5-.3-1-.9-1.3-1.6-.4-.7-.5-1.4-.5-2.1,0-1.3.5-2.5,1.4-3.4s2.1-1.4,3.6-1.4,1.2,0,1.9.2,1,.2,1.1.3,0,0,0,0l.1.1Z"/>
          <path class="st1" d="M845.88-240.7v-.2h10.9v2.4h-.2c-.2-.9-.4-1.4-.6-1.6s-.6-.2-1.2-.2h-5.7v7.7h5.3c.5,0,.9,0,1-.1s.2-.2.2-.4h.2v1.6h-.2c0-.2-.1-.4-.3-.5s-.4-.1-.8-.1h-5.4v5.3c0,.8,0,1.4.2,1.7.1.4.4.6.7.7s.8.1,1.5.1h4.9c.3,0,.5-.2.7-.4.2-.2.3-.6.4-1.3h.2v2.4h-11.8v-.2c.4,0,.7,0,.9-.2s.3-.5.3-1v-13.9c0-.6,0-1.1-.2-1.3s-.5-.4-1.1-.4l.1-.1Z"/>
          <path class="st1" d="M879.98-231.6h-5.1l-2.6,6.5c-.2.5-.3.8-.3.9,0,.3.2.4.6.4v.2h-2.6v-.2c.3,0,.6,0,.9-.3.2-.2.5-.6.8-1.3l6.3-15.8h.3l6.2,15.2s.2.4.5,1.1.8,1,1.4,1v.2h-4v-.2c.4,0,.6-.1.6-.4s0-.5-.3-.9v-.3l-2.5-6.1h-.2ZM875.07-232.1h4.7l-2.3-5.9-2.3,5.9h-.1Z"/>
          <path class="st1" d="M899.38-240.7v-.2h10.9v2h-.2v-.2c-.2-.6-.4-1-.7-1.1s-.7-.2-1.3-.2h-5.6v7.6h5.2c.4,0,.7,0,.9-.1s.3-.2.3-.5h.2v1.7h-.2c0-.4-.3-.6-.8-.6h-5.6v6.9c0,.6,0,1.1.3,1.3.2.2.5.3,1,.3v.2h-4.5v-.2c.5,0,.9-.1,1-.3s.2-.5.2-.9v-14.2c0-.6,0-1-.2-1.2s-.5-.3-1-.3h.1Z"/>
          <path class="st1" d="M932.98-241.1c2.4,0,4.4.7,5.9,2.2s2.3,3.3,2.3,5.5-.9,5.2-2.7,7.2-4.1,2.9-7.1,2.9-4.3-.8-5.9-2.3-2.3-3.4-2.3-5.6.4-3,1.1-4.5,1.8-2.8,3.3-3.8,3.2-1.5,5.2-1.5l.2-.1ZM932.88-224.3c1.2,0,2.4-.3,3.5-1s2.1-1.5,2.7-2.6,1-2.3,1-3.4c0-1.7-.4-3.2-1.3-4.6s-2.1-2.4-3.5-3.2-2.7-1.2-4-1.2-3.3.6-4.7,1.9-2.1,2.9-2.1,4.8.9,4.6,2.6,6.4,3.6,2.8,5.7,2.8l.1.1Z"/>
          <path class="st1" d="M964.48-241.1c2.4,0,4.4.7,5.9,2.2s2.3,3.3,2.3,5.5-.9,5.2-2.7,7.2-4.1,2.9-7.1,2.9-4.3-.8-5.9-2.3-2.3-3.4-2.3-5.6.4-3,1.1-4.5,1.8-2.8,3.3-3.8,3.2-1.5,5.2-1.5l.2-.1ZM964.38-224.3c1.2,0,2.4-.3,3.5-1s2.1-1.5,2.7-2.6,1-2.3,1-3.4c0-1.7-.4-3.2-1.3-4.6s-2.1-2.4-3.5-3.2-2.7-1.2-4-1.2-3.3.6-4.7,1.9-2.1,2.9-2.1,4.8.9,4.6,2.6,6.4,3.6,2.8,5.7,2.8l.1.1Z"/>
          <path class="st1" d="M986.38-240.7v-.2h7.9c2,0,3.6.2,4.8.5s2.2.8,3.1,1.5,1.6,1.5,2.1,2.6.8,2.2.8,3.5-.3,2.5-.8,3.7-1.2,2.3-2.2,3.1-1.9,1.5-2.9,1.8-2.6.5-4.7.5h-8.1v-.2h.2c.4,0,.7-.2.8-.5s.2-1,.2-1.8v-12.6c0-.9,0-1.5-.2-1.7s-.5-.3-1-.3v.1ZM992.28-240.5h-2.6v13.4c0,.8.1,1.5.4,1.9s.8.7,1.5.9,1.6.3,2.8.3c3.2,0,5.5-.8,6.8-2.5s2-3.5,2-5.4-.9-4.3-2.7-6-4.5-2.5-8.1-2.5l-.1-.1Z"/>
        </g>
      </g>
    </g>
  </g>
</svg>